<svg width="62.000000" height="38.750000" viewBox="0 0 62 38.75" fill="none" xmlns="http://www.w3.org/2000/svg" xmlns:xlink="http://www.w3.org/1999/xlink">
	<desc>
			Created with Pixso.
	</desc>
	<defs>
		<clipPath id="clip1_228">
			<rect id="phone-call 1" width="20.020834" height="20.020834" transform="translate(21.312500 9.687500)" fill="white" fill-opacity="0"/>
		</clipPath>
	</defs>
	<rect id="Rectangle 1" rx="5.000000" width="62.000000" height="38.750000" fill="#6B5AF9" fill-opacity="1.000000"/>
	<rect id="phone-call 1" width="20.020834" height="20.020834" transform="translate(21.312500 9.687500)" fill="#FFFFFF" fill-opacity="0"/>
	<g clip-path="url(#clip1_228)">
		<path id="Vector" d="M40.78 24.38L37.99 21.58C36.99 20.58 35.29 20.98 34.9 22.28C34.6 23.18 33.6 23.68 32.7 23.48C30.7 22.98 28.01 20.38 27.51 18.29C27.21 17.39 27.81 16.39 28.71 16.09C30.01 15.69 30.41 14 29.41 13L26.61 10.21C25.82 9.51 24.62 9.51 23.92 10.21L22.02 12.1C20.13 14.1 22.22 19.39 26.91 24.08C31.6 28.77 36.89 30.96 38.89 28.97L40.78 27.07C41.48 26.27 41.48 25.07 40.78 24.38Z" fill="#FFFFFF" fill-opacity="1.000000" fill-rule="nonzero"/>
	</g>
</svg>
