<svg width="20.869629" height="18.149414" viewBox="0 0 20.8696 18.1494" fill="none" xmlns="http://www.w3.org/2000/svg" xmlns:xlink="http://www.w3.org/1999/xlink">
	<desc>
			Created with Pixso.
	</desc>
	<defs/>
	<path id="Vector" d="M20.22 14.86C21.08 15.61 21.08 16.83 20.22 17.58C19.78 17.96 19.22 18.14 18.65 18.14C18.08 18.14 17.52 17.96 17.08 17.58L10.43 11.79L3.78 17.58C3.34 17.96 2.78 18.14 2.21 18.14C1.64 18.14 1.08 17.96 0.64 17.58C-0.22 16.83 -0.22 15.61 0.64 14.86L7.3 9.07L0.64 3.28C-0.22 2.53 -0.22 1.31 0.64 0.56C1.51 -0.19 2.91 -0.19 3.78 0.56L10.43 6.35L17.08 0.56C17.95 -0.19 19.35 -0.19 20.22 0.56C21.08 1.31 21.08 2.53 20.22 3.28L13.56 9.07L20.22 14.86Z" fill="#2A2367" fill-opacity="1.000000" fill-rule="nonzero"/>
</svg>
