<svg width="182.000000" height="55.000000" viewBox="0 0 182 55" fill="none" xmlns="http://www.w3.org/2000/svg" xmlns:xlink="http://www.w3.org/1999/xlink">
	<desc>
			Created with Pixso.
	</desc>
	<defs/>
	<path id="лю" d="M16.92 27.09L16.94 36L21.33 36L21.28 19.2L17.37 19.2L11.61 28.89L5.71 19.2L1.79 19.2L1.79 36L6.16 36L6.16 27.28L10.48 34.34L12.59 34.34L16.92 27.09Z" fill="#2A2367" fill-opacity="1.000000" fill-rule="evenodd"/>
	<path id="ENNIUM" d="M83.16 36L83.16 32.32L74.38 32.32L74.38 29.25L81.84 29.25L81.84 25.7L74.38 25.7L74.38 22.86L82.85 22.86L82.85 19.2L69.68 19.2L69.68 36L83.16 36ZM103.47 36L103.47 19.2L98.81 19.2L98.81 28.15L91.39 19.2L87.48 19.2L87.48 36L92.14 36L92.14 27.04L99.56 36L103.47 36ZM124.49 36L124.49 19.2L119.84 19.2L119.84 28.15L112.42 19.2L108.51 19.2L108.51 36L113.16 36L113.16 27.04L120.58 36L124.49 36ZM134.28 19.2L129.53 19.2L129.53 36L134.28 36L134.28 19.2ZM141.71 34.68Q143.73 36.33 147.1 36.33Q150.47 36.33 152.49 34.68Q152.71 34.49 152.92 34.29Q153.16 34.06 153.37 33.8Q154.99 31.82 154.99 28.51L154.99 19.2L150.32 19.2L150.32 28.36Q150.32 30.86 149.1 31.81Q148.36 32.4 147.15 32.4Q145.92 32.4 145.16 31.8Q143.95 30.84 143.95 28.36L143.95 19.2L139.2 19.2L139.2 28.51Q139.2 31.82 140.83 33.8Q141.04 34.06 141.28 34.29Q141.49 34.49 141.71 34.68ZM175.01 27.09L175.06 36L179.43 36L179.38 19.2L175.47 19.2L169.71 28.89L163.8 19.2L159.89 19.2L159.89 36L164.28 36L164.28 27.33L168.58 34.34L170.69 34.34L175.01 27.09Z" fill="#2A2367" fill-opacity="1.000000" fill-rule="evenodd"/>
	<rect id="Rectangle 2" x="28.000000" y="19.000000" width="7.000000" height="17.000000" fill="#6B5AF9" fill-opacity="1.000000"/>
	<rect id="Rectangle 3" x="42.000000" y="7.000000" width="7.000000" height="41.000000" fill="#6B5AF9" fill-opacity="1.000000"/>
	<rect id="Rectangle 4" x="56.000000" width="7.000000" height="55.000000" fill="#6B5AF9" fill-opacity="1.000000"/>
</svg>
