<svg width="161.000000" height="55.000000" viewBox="0 0 161 55" fill="none" xmlns="http://www.w3.org/2000/svg" xmlns:xlink="http://www.w3.org/1999/xlink">
	<desc>
			Created with Pixso.
	</desc>
	<defs/>
	<path id="лю" d="M16.92 27.09L16.94 36L21.33 36L21.28 19.2L17.37 19.2L11.61 28.89L5.71 19.2L1.79 19.2L1.79 36L6.16 36L6.16 27.28L10.48 34.34L12.59 34.34L16.92 27.09Z" fill="#FFFFFF" fill-opacity="1.000000" fill-rule="evenodd"/>
	<path id="ENIUM" d="M83.16 36L83.16 32.32L74.38 32.32L74.38 29.25L81.84 29.25L81.84 25.7L74.38 25.7L74.38 22.86L82.85 22.86L82.85 19.2L69.68 19.2L69.68 36L83.16 36ZM103.47 36L103.47 19.2L98.81 19.2L98.81 28.15L91.39 19.2L87.48 19.2L87.48 36L92.14 36L92.14 27.04L99.56 36L103.47 36ZM113.26 19.2L108.51 19.2L108.51 36L113.26 36L113.26 19.2ZM120.69 34.68Q122.71 36.33 126.08 36.33Q129.45 36.33 131.46 34.68Q131.69 34.49 131.89 34.29Q132.13 34.06 132.34 33.8Q133.97 31.82 133.97 28.51L133.97 19.2L129.29 19.2L129.29 28.36Q129.29 30.86 128.08 31.81Q127.33 32.4 126.12 32.4Q124.89 32.4 124.14 31.8Q122.93 30.84 122.93 28.36L122.93 19.2L118.18 19.2L118.18 28.51Q118.18 31.82 119.81 33.8Q120.02 34.06 120.25 34.29Q120.46 34.49 120.69 34.68ZM153.99 27.09L154.03 36L158.4 36L158.36 19.2L154.44 19.2L148.68 28.89L142.78 19.2L138.87 19.2L138.87 36L143.26 36L143.26 27.33L147.55 34.34L149.67 34.34L153.99 27.09Z" fill="#FFFFFF" fill-opacity="1.000000" fill-rule="evenodd"/>
	<rect id="Rectangle 2" x="28.000000" y="19.000000" width="7.000000" height="17.000000" fill="#6B5AF9" fill-opacity="1.000000"/>
	<rect id="Rectangle 3" x="42.000000" y="7.000000" width="7.000000" height="41.000000" fill="#6B5AF9" fill-opacity="1.000000"/>
	<rect id="Rectangle 4" x="56.000000" width="7.000000" height="55.000000" fill="#6B5AF9" fill-opacity="1.000000"/>
</svg>
