<svg width="18.000000" height="11.000000" viewBox="0 0 18 11" fill="none" xmlns="http://www.w3.org/2000/svg" xmlns:xlink="http://www.w3.org/1999/xlink">
	<desc>
			Created with Pixso.
	</desc>
	<defs/>
	<path id="Vector" d="M0.28 9.42L0.87 10.02C1.06 10.2 1.3 10.3 1.57 10.3C1.83 10.3 2.08 10.2 2.27 10.02L8.99 3.29L15.72 10.02C15.91 10.21 16.16 10.31 16.42 10.31C16.68 10.31 16.93 10.21 17.12 10.02L17.71 9.43C18.09 9.05 18.09 8.42 17.71 8.04L9.69 -0.01C9.5 -0.19 9.26 -0.32 8.99 -0.32L8.99 -0.32C8.72 -0.32 8.48 -0.19 8.29 -0.01L0.28 8.02C0.1 8.2 0 8.46 0 8.72C0 8.99 0.1 9.24 0.28 9.42Z" fill="#6B5AF9" fill-opacity="1.000000" fill-rule="nonzero"/>
</svg>
