<svg width="35.000000" height="35.000000" viewBox="0 0 35 35" fill="none" xmlns="http://www.w3.org/2000/svg" xmlns:xlink="http://www.w3.org/1999/xlink">
	<desc>
			Created with Pixso.
	</desc>
	<defs>
		<clipPath id="clip1_943">
			<rect id="telegram (3) 2" width="35.000000" height="35.000000" fill="white" fill-opacity="0"/>
		</clipPath>
	</defs>
	<rect id="telegram (3) 2" width="35.000000" height="35.000000" fill="#FFFFFF" fill-opacity="0"/>
	<g clip-path="url(#clip1_943)">
		<path id="Vector" d="M35 17.5C35 27.16 27.16 35 17.5 35C7.83 35 0 27.16 0 17.5C0 7.83 7.83 0 17.5 0C27.16 0 35 7.83 35 17.5Z" fill="#FFFFFF" fill-opacity="1.000000" fill-rule="evenodd"/>
		<path id="Vector" d="M8 17.12L24.88 10.61C25.66 10.33 26.34 10.8 26.09 11.98L26.09 11.98L23.22 25.52C23 26.48 22.43 26.71 21.64 26.26L17.26 23.03L15.15 25.07C14.92 25.3 14.72 25.5 14.27 25.5L14.58 21.05L22.69 13.72C23.04 13.41 22.61 13.23 22.14 13.54L12.12 19.85L7.8 18.51C6.87 18.21 6.85 17.57 8 17.12Z" fill="#2A2367" fill-opacity="1.000000" fill-rule="nonzero"/>
	</g>
</svg>
