<svg width="18.000000" height="18.000000" viewBox="0 0 18 18" fill="none" xmlns="http://www.w3.org/2000/svg" xmlns:xlink="http://www.w3.org/1999/xlink">
	<desc>
			Created with Pixso.
	</desc>
	<defs>
		<clipPath id="clip1_962">
			<rect id="telegram (3) 1" width="18.000000" height="18.000000" fill="white" fill-opacity="0"/>
		</clipPath>
	</defs>
	<rect id="telegram (3) 1" width="18.000000" height="18.000000" fill="#FFFFFF" fill-opacity="0"/>
	<g clip-path="url(#clip1_962)">
		<path id="Vector" d="M18 9C18 13.97 13.97 18 9 18C4.02 18 0 13.97 0 9C0 4.02 4.02 0 9 0C13.97 0 18 4.02 18 9Z" fill="#707070" fill-opacity="1.000000" fill-rule="evenodd"/>
		<path id="Vector" d="M4.11 8.8L12.79 5.45C13.19 5.31 13.55 5.55 13.41 6.16L13.42 6.16L11.94 13.12C11.83 13.62 11.54 13.74 11.13 13.5L8.88 11.84L7.79 12.89C7.67 13.01 7.57 13.11 7.34 13.11L7.5 10.82L11.67 7.05C11.85 6.89 11.63 6.8 11.39 6.96L6.23 10.21L4.01 9.52C3.53 9.36 3.52 9.03 4.11 8.8Z" fill="#FFFFFF" fill-opacity="1.000000" fill-rule="nonzero"/>
	</g>
</svg>
