<svg width="18.000000" height="18.000000" viewBox="0 0 18 18" fill="none" xmlns="http://www.w3.org/2000/svg" xmlns:xlink="http://www.w3.org/1999/xlink">
	<desc>
			Created with Pixso.
	</desc>
	<defs>
		<clipPath id="clip1_965">
			<rect id="whatsapp (1) 1" width="18.000000" height="18.000000" fill="white" fill-opacity="0"/>
		</clipPath>
	</defs>
	<rect id="whatsapp (1) 1" width="18.000000" height="18.000000" fill="#FFFFFF" fill-opacity="0"/>
	<g clip-path="url(#clip1_965)">
		<path id="Vector" d="M9 0L8.99 0C4.03 0 0 4.03 0 9C0 10.96 0.63 12.79 1.71 14.27L0.59 17.61L4.05 16.51C5.47 17.45 7.17 18 9 18C13.96 18 18 13.96 18 9C18 4.03 13.96 0 9 0Z" fill="#707070" fill-opacity="1.000000" fill-rule="nonzero"/>
		<path id="Vector" d="M14.23 12.7C14.02 13.32 13.16 13.83 12.47 13.97C12 14.07 11.38 14.15 9.32 13.3C6.67 12.2 4.97 9.51 4.83 9.34C4.71 9.16 3.77 7.92 3.77 6.62C3.77 5.33 4.42 4.7 4.69 4.43C4.9 4.21 5.26 4.11 5.61 4.11C5.72 4.11 5.82 4.12 5.91 4.12C6.17 4.13 6.31 4.15 6.48 4.57C6.7 5.09 7.23 6.38 7.29 6.51C7.35 6.65 7.42 6.83 7.33 7C7.24 7.18 7.17 7.26 7.04 7.41C6.9 7.57 6.78 7.68 6.64 7.85C6.52 7.99 6.39 8.14 6.54 8.41C6.69 8.67 7.22 9.53 8 10.22C9 11.12 9.82 11.4 10.11 11.52C10.33 11.61 10.58 11.59 10.74 11.42C10.94 11.21 11.19 10.85 11.45 10.49C11.63 10.24 11.85 10.21 12.09 10.3C12.34 10.38 13.62 11.02 13.89 11.15C14.15 11.28 14.32 11.34 14.39 11.46C14.45 11.57 14.45 12.09 14.23 12.7Z" fill="#FAFAFA" fill-opacity="1.000000" fill-rule="nonzero"/>
	</g>
</svg>
