<svg width="35.000000" height="35.000000" viewBox="0 0 35 35" fill="none" xmlns="http://www.w3.org/2000/svg" xmlns:xlink="http://www.w3.org/1999/xlink">
	<desc>
			Created with Pixso.
	</desc>
	<defs>
		<clipPath id="clip1_946">
			<rect id="whatsapp (1) 2" width="35.000000" height="35.000000" fill="white" fill-opacity="0"/>
		</clipPath>
	</defs>
	<rect id="whatsapp (1) 2" width="35.000000" height="35.000000" fill="#FFFFFF" fill-opacity="0"/>
	<g clip-path="url(#clip1_946)">
		<path id="Vector" d="M17.5 0L17.49 0C7.84 0 0 7.84 0 17.5C0 21.32 1.23 24.87 3.33 27.75L1.15 34.25L7.87 32.1C10.64 33.94 13.94 35 17.5 35C27.15 35 35 27.14 35 17.5C35 7.85 27.15 0 17.5 0Z" fill="#FFFFFF" fill-opacity="1.000000" fill-rule="nonzero"/>
		<path id="Vector" d="M27.68 24.71C27.26 25.9 25.58 26.89 24.25 27.18C23.33 27.37 22.14 27.53 18.12 25.86C12.98 23.73 9.66 18.5 9.41 18.16C9.16 17.83 7.33 15.4 7.33 12.89C7.33 10.37 8.6 9.15 9.12 8.63C9.54 8.2 10.24 8 10.91 8C11.12 8 11.32 8.01 11.49 8.02C12.01 8.04 12.26 8.07 12.6 8.88C13.03 9.9 14.05 12.41 14.18 12.67C14.3 12.93 14.43 13.28 14.25 13.62C14.09 13.97 13.94 14.12 13.68 14.42C13.43 14.72 13.18 14.94 12.92 15.26C12.69 15.54 12.42 15.84 12.72 16.35C13.02 16.86 14.04 18.53 15.56 19.88C17.51 21.62 19.09 22.18 19.66 22.41C20.08 22.59 20.59 22.55 20.89 22.22C21.29 21.8 21.77 21.1 22.26 20.41C22.61 19.91 23.05 19.85 23.52 20.03C23.99 20.19 26.49 21.43 27 21.68C27.52 21.94 27.86 22.06 27.98 22.28C28.1 22.5 28.1 23.51 27.68 24.71Z" fill="#2A2367" fill-opacity="1.000000" fill-rule="nonzero"/>
	</g>
</svg>
